<?xml version="1.0" encoding="iso-8859-1"?>
<!-- Uploaded to: SVG Repo, www.svgrepo.com, Generator: SVG Repo Mixer Tools -->
<svg fill="#000000" height="800px" width="800px" version="1.1" id="Layer_1" xmlns="http://www.w3.org/2000/svg" xmlns:xlink="http://www.w3.org/1999/xlink" 
	 viewBox="0 0 475.1 475.1" xml:space="preserve">
<g transform="translate(0 -540.36)">
	<g>
		<g>
			<path d="M464.9,962.21L464.9,962.21l-32,0c-3.6-13.8-15.2-25-29.1-28l-25.1-130c-0.9-4.7-5-8.1-9.8-8.1h-55.2
				c-0.4,0-0.8,0-1.1,0.1c-9.5-23.7-24.8-44.5-44.1-60.8v-82.1c0-5.5-4.5-10-10-10H75.2v-86.5c0-5.5-4.5-10-10-10H10
				c-5.5,0-10,4.5-10,10s4.5,10,10,10h45.2v181c-27.1,28.9-42,66.3-42,105.9c0,41.7,16.1,80.7,45.5,110
				c29.2,29.1,68,45.2,109.2,45.2c41.7,0,80.8-16,110.2-45.1c29.4-29.2,45.6-68.3,45.6-110c0-13-1.6-25.6-4.6-37.6h41.6l23.1,119.7
				c-14.3,5.4-24.8,19.4-24.8,35.4c0,21.1,16.5,37.7,37.6,37.7c16.5,0,31-11.4,35.9-26.6h32.6c5.5,0,10-4.5,10-10
				C474.9,966.71,470.4,962.21,464.9,962.21z M75.1,663.31h173.3v57.7c-23.5-14.2-51.1-22.4-80.6-22.4c-33.8,0-66,10.9-92.7,31.2
				V663.31z M167.8,988.81L167.8,988.81c-74.3,0-134.7-60.6-134.7-135.1s60.4-135.1,134.7-135.1c74.9,0,135.8,60.6,135.8,135.1
				S242.7,988.81,167.8,988.81z M396.4,988.81c-9.9,0-17.6-7.8-17.6-17.7c0-8.4,7.2-17.7,17.6-17.7c8.9,0,17.6,8.8,17.6,17.7
				C414,981.51,404.8,988.81,396.4,988.81z"/>
			<path d="M167.8,781.71c-39.6,0-71.8,32.3-71.8,72s32.2,72,71.8,72s71.9-32.3,71.8-72C239.6,814.01,207.4,781.71,167.8,781.71z
				 M167.8,905.61c-28.5,0-51.8-23.3-51.8-52s23.2-52,51.8-52c28.6,0,51.9,23.4,51.8,52C219.6,882.31,196.3,905.61,167.8,905.61z"/>
		</g>
	</g>
</g>
</svg>